<svg width="69" height="36" viewBox="0 0 69 36" fill="none" xmlns="http://www.w3.org/2000/svg">
<path d="M46.6759 13.8216C46.1518 13.4704 45.5319 13.2923 44.9024 13.3119C44.226 13.3094 43.5669 13.5275 43.0241 13.9334V9.3859H40.7802V24.2141H43.0177V16.4756C43.0177 15.9372 43.4675 15.3428 44.3033 15.306C44.5232 15.2959 44.7423 15.3394 44.9418 15.4329C45.1414 15.5264 45.3154 15.6671 45.4491 15.8429C45.7272 16.2599 45.7097 16.8112 45.7097 17.4168V24.2157H47.9472V17.3289C47.9472 15.2996 47.6834 14.5758 46.6759 13.8136V13.8216Z" fill="#0066CC"/>
<path d="M28.474 18.9108C28.474 20.3633 28.4279 20.7723 28.4168 20.8985C28.3405 21.6975 27.9989 22.5555 27.0661 22.5555C26.1332 22.5555 25.755 21.6448 25.7153 20.8586C25.7153 20.8586 25.6581 20.3633 25.6581 18.9108C25.6581 17.4583 25.7153 16.8527 25.7153 16.8479C25.7264 16.0298 26.1491 15.2101 27.0661 15.2101C27.983 15.2101 28.4057 16.0298 28.4152 16.84C28.4152 16.8527 28.4724 17.4583 28.4724 18.9172L28.474 18.9108ZM30.6368 17.1675C30.319 13.9973 28.5296 13.3183 27.0613 13.3183C24.9795 13.3183 23.7098 14.6493 23.4826 17.1643C23.4651 17.3657 23.4317 17.7348 23.4206 18.922C23.4206 19.7848 23.4683 20.4943 23.4778 20.6796C23.6224 23.0269 24.9605 24.473 27.0613 24.473C29.1621 24.473 30.497 23.0013 30.6432 20.678C30.6527 20.5183 30.7004 19.7928 30.7004 18.9284C30.7036 18.5225 30.6686 17.4615 30.6384 17.1627L30.6368 17.1675Z" fill="#0066CC"/>
<path d="M51.6848 17.5766C51.7007 17.0861 51.7007 16.9822 51.7103 16.84C51.7738 15.9516 52.1679 15.2181 53.0737 15.2102C54.148 15.2022 54.3991 16.26 54.4372 16.8448C54.4579 17.1516 54.4801 17.3577 54.4785 17.5766H51.6848ZM54.4468 20.547C54.4481 20.6698 54.4417 20.7926 54.4277 20.9146C54.3657 21.4387 54.1591 22.5556 53.069 22.5556C52.1409 22.5556 51.7865 21.7071 51.7246 20.8634C51.6826 20.3917 51.6646 19.9181 51.6705 19.4445H56.6588C56.6588 19.4445 56.6668 18.6983 56.6588 18.2493C56.6588 18.0735 56.6429 17.7795 56.6 17.1596C56.5317 16.2088 56.1773 15.1686 55.6386 14.4991C55.331 14.1159 54.9394 13.8093 54.4945 13.6034C54.0496 13.3974 53.5633 13.2977 53.0737 13.3119C51.0587 13.3119 49.8001 14.6285 49.5522 17.1596C49.4996 17.7439 49.48 18.3307 49.4934 18.9172C49.4934 19.7801 49.5411 20.5007 49.5506 20.6749C49.6873 22.9838 51.0444 24.4682 53.0753 24.4682C55.1062 24.4682 56.4618 23.0221 56.6016 20.5598L54.4468 20.547Z" fill="#0066CC"/>
<path d="M16.3458 1.81838H52.7067L66.6099 18.1742L52.7098 34.3126H16.3442L2.38687 18.1182L16.3458 1.81997V1.81838ZM53.587 0H15.467L0 18.0559L15.4686 36H53.5854L69 18.115L53.587 0Z" fill="#0066CC"/>
<path d="M16.7955 11.4008H17.8539C19.006 11.4008 19.6289 12.0144 19.6575 13.1105C19.6575 13.192 19.6702 13.2831 19.6702 13.4541C19.6728 13.5693 19.6686 13.6845 19.6575 13.7992C19.594 14.4496 19.3095 15.5872 17.9619 15.5872H16.7955V11.4008ZM22.0968 23.2986L21.8696 19.6538C21.7695 18.0256 21.3484 17.0669 20.5109 16.5747C21.1163 16.2088 21.8982 15.2964 21.8918 13.4125C21.8807 10.5364 20.1025 9.52492 18.0096 9.50095H14.585V24.2125H16.7939V17.4855H18.0223C18.7326 17.4855 19.5352 18.1103 19.6559 19.8647L19.8864 23.3097C19.8983 23.6142 19.935 23.9172 19.996 24.2157H22.2049C22.1414 23.9139 22.1047 23.6069 22.0952 23.2986H22.0968Z" fill="#0066CC"/>
<path d="M37.1745 20.4527C37.1666 20.6125 37.1554 20.7627 37.1475 20.8666C37.0839 21.6895 36.7963 22.5635 35.7967 22.5635C34.8655 22.5635 34.4968 21.6144 34.4285 20.9177C34.3872 20.4959 34.3967 20.1667 34.3888 18.9188C34.3686 18.2306 34.3877 17.5419 34.446 16.8559C34.5254 15.9388 34.8798 15.2261 35.7967 15.2181C36.7407 15.2181 37.1364 16.0378 37.1475 16.8479C37.1475 16.8479 37.1666 17.0525 37.1824 17.4871H39.3945C39.3945 17.3401 39.3818 17.2155 39.3754 17.142C39.1228 14.0692 37.2619 13.3246 35.792 13.3246C33.7102 13.3246 32.4421 14.6557 32.2132 17.1707C32.1958 17.372 32.164 17.7412 32.1528 18.9284C32.1528 19.7912 32.2005 20.5007 32.2116 20.686C32.3547 23.0333 33.6943 24.473 35.7935 24.4794C37.9691 24.4794 39.1673 23.1531 39.377 20.6844C39.388 20.6136 39.3922 20.5419 39.3897 20.4703H37.1745V20.4527Z" fill="#0066CC"/>
</svg>
