<svg width="599" height="458" viewBox="0 0 599 458" fill="none" xmlns="http://www.w3.org/2000/svg">
<path d="M68 413V106.716C68 75.4004 95.6972 50 129.752 50H461.248C495.39 50 523 75.4004 523 106.716V413H68Z" fill="#A6CFED"/>
<path d="M36.7738 206.545C48.0618 198.195 55.1263 188.606 52.5528 185.127C49.9793 181.648 38.7424 185.596 27.4545 193.945C16.1665 202.295 9.10201 211.884 11.6755 215.363C14.2489 218.842 25.4858 214.894 36.7738 206.545Z" fill="#0371D2"/>
<path d="M118.603 78.5829L151 65L146.433 70.0402L118 82L118.603 78.5829Z" fill="#383530"/>
<path d="M37.8947 83H22.1053C20.9649 83 20 82.0833 20 81V80C20 78.9167 20.9649 78 22.1053 78H37.8947C39.0351 78 40 78.9167 40 80V81C40 82.0833 39.0351 83 37.8947 83Z" fill="#EAECEF"/>
<path d="M229.447 222.999L274.873 400L306 331.97C300.245 304.183 281.238 185.979 257.086 173L225 189.289L229.447 222.999Z" fill="white"/>
<path d="M2.41906 100L0 110.52L0.777554 122.161C1.12313 127.249 2.50545 132.25 4.83812 136.734C14.6007 155.36 19.7844 158.292 25.1409 162L41.6424 148.203C43.4567 138.89 43.8886 129.491 40.1736 119.919L12.6137 122.248L2.41906 100Z" fill="#F2B7B6"/>
<path d="M22 155.304V218C22 218 49.2775 205.304 47.9533 203.391C46.6292 201.391 40.0084 132 40.0084 132L22 155.304Z" fill="#F2B7B6"/>
<path d="M179 10.698C179 10.698 183.96 48.2242 195.184 69.4802C206.408 90.6488 199.621 104.295 199.621 104.295L201.97 128C201.97 128 208.583 108.843 217.806 97.2093C235.817 74.4662 245.214 -7.84634 179 10.698Z" fill="#7C5345"/>
<path d="M212.039 91.2138C215.667 85.6011 214.026 78.0886 208.373 74.4342C202.72 70.7797 195.196 72.3671 191.568 77.9797C187.939 83.5924 189.58 91.1049 195.234 94.7593C200.887 98.4138 208.411 96.8264 212.039 91.2138Z" fill="#FEC8C3"/>
<path d="M202 161.211C202 159.817 201.474 63 201.474 63L156 123.827L156.263 164L202 161.211Z" fill="#EF9F95"/>
<path d="M125.089 26.6635C125.089 26.6635 121.354 57.2089 123.873 62.9143C126.392 68.6196 125.437 70.7262 125.437 70.7262C125.437 70.7262 122.309 78.0992 123.612 89.861C124.481 97.7607 126.131 111.541 127 119.704C127.435 123.654 128.129 129.359 128.129 129.359C128.129 129.359 132.907 148.494 171.478 137.698C192.327 131.905 192.761 111.892 201.101 94.513C210.135 75.6416 215 37.1086 215 37.1086C215 37.1086 155.928 4.63212 125.089 26.6635Z" fill="#FEC8C3"/>
<path d="M202.29 146L257 172.935L247.519 314.321L248.911 415H104.003L92 232.732L98.6104 169.971L150.015 147.918L202.29 146Z" fill="white"/>
<path d="M145.832 82L138 96.9573L146 102L145.832 82Z" fill="#DD908A"/>
<path d="M176 19.233C176 19.233 180.487 39.5011 190.066 58.3775C199.644 77.2538 194.553 89.78 194.553 89.78L201.543 97C201.543 97 198.005 80.8203 208.187 73.6873C227.862 59.7693 222.685 -13.2134 176 19.233Z" fill="#7C5345"/>
<path d="M33 273.358L54.8794 303L104 232.327L98.6382 170C98.6382 170 75.7211 177.041 69.408 195.122C63.095 213.203 33 273.358 33 273.358Z" fill="white"/>
<path d="M146.208 147.923C146.208 147.923 131.627 169.48 156.749 166.763C181.783 164.047 199 145.995 199 145.995L170.452 141L146.208 147.923Z" fill="#EF9F95"/>
<path d="M160 179H155V415H160V179Z" fill="#0563AA"/>
<path d="M137.997 78.5C137.909 82.6761 136.064 86 133.868 86C131.672 86 129.915 82.6761 130.003 78.5C130.091 74.3239 131.936 71 134.132 71C136.328 71 138.085 74.4091 137.997 78.5Z" fill="#2E2E35"/>
<path d="M171.997 81C171.909 85.4545 170.064 89 167.868 89C165.672 89 163.915 85.4545 164.003 81C164.091 76.5455 165.936 73 168.132 73C170.328 73 172.085 76.6364 171.997 81Z" fill="#2E2E35"/>
<path d="M146 163.375C146 163.375 156.948 241.208 156.948 238.952C156.948 236.609 196 156 196 156L161.345 166.759L146 163.375Z" fill="#0563AA"/>
<path d="M149.815 143L161 166.392L148.406 163.686L136.869 178L130 153.125L149.815 143Z" fill="#0371D2"/>
<path d="M189.526 182L174.439 163.106L161 166.903L201.058 137.856L201.751 133L221 153.483L189.526 182Z" fill="#0371D2"/>
<path d="M162 167.287L186 177L174.696 163L162 167.287Z" fill="#145896"/>
<path d="M161 166.583L148.529 164L146 167L161 166.583Z" fill="#145896"/>
<path d="M31.4713 137.917C28.5451 137.396 26.5655 134.616 27.0819 131.662L32.332 101.514C32.8483 98.5597 35.6025 96.5614 38.5287 97.0827C41.4549 97.604 43.4345 100.384 42.9181 103.338L37.668 133.486C37.1516 136.44 34.3975 138.439 31.4713 137.917Z" fill="#F2B7B6"/>
<path d="M30.1373 156H29.8627C26.1111 156 23 153.04 23 149.471V84.529C23 80.9598 26.1111 78 29.8627 78H30.1373C33.8889 78 37 80.9598 37 84.529V149.471C37 153.04 33.8889 156 30.1373 156Z" fill="#EAECEF"/>
<path d="M30.3982 147H29.6018C27.1239 147 25 145.024 25 142.533V101.467C25 99.0619 27.0354 97 29.6018 97H30.3982C32.8761 97 35 98.9759 35 101.467V142.533C35 144.938 32.9646 147 30.3982 147Z" fill="#94DEF7"/>
<path d="M26.8204 86.5037L12.9647 90.8833C11.3496 91.3395 9.64956 90.4271 9.22454 88.6935L9.13954 88.511C8.62951 86.7774 9.56456 84.9525 11.1796 84.4963L25.0353 80.1167C26.6504 79.6605 28.3504 80.5729 28.7755 82.3065L28.8605 82.489C29.3705 84.2226 28.4354 86.0475 26.8204 86.5037Z" fill="#F2B7B6"/>
<path d="M15.5928 89.8708L8.43483 102.387C7.55114 103.93 5.60701 104.444 4.01636 103.587L3.66288 103.416C2.07223 102.558 1.54201 100.672 2.42571 99.1292L9.58364 86.6131C10.4673 85.0701 12.4115 84.5557 14.0021 85.413L14.3556 85.5844C15.8579 86.356 16.4765 88.3277 15.5928 89.8708Z" fill="#F2B7B6"/>
<path d="M19.5533 101.49L6.29791 108.634C4.77532 109.484 2.71536 108.804 1.64059 107.103L1.55103 106.933C0.565831 105.317 0.924085 103.276 2.44667 102.51L15.7021 95.3661C17.2247 94.5157 19.2846 95.1961 20.3594 96.897L20.449 97.0671C21.4342 98.598 21.0759 100.639 19.5533 101.49Z" fill="#F2B7B6"/>
<path d="M20.4405 112.016L6.619 115.865C4.77026 116.415 2.92152 115.224 2.39331 113.299L2.1292 112.383C1.60099 110.458 2.74545 108.534 4.59419 107.984L18.4157 104.135C20.2645 103.585 22.1132 104.776 22.6414 106.701L22.9055 107.617C23.3457 109.542 22.2012 111.558 20.4405 112.016Z" fill="#F2B7B6"/>
<path d="M18.7737 121.117L4.8405 124.897C3.22628 125.326 1.61207 124.381 1.18728 122.749L1.10232 122.577C0.677525 120.945 1.61207 119.313 3.22628 118.883L17.1595 115.103C18.7737 114.674 20.3879 115.619 20.8127 117.251L20.8977 117.423C21.3225 118.969 20.3879 120.687 18.7737 121.117Z" fill="#F2B7B6"/>
<path d="M29.7001 104.863L15.4265 100.895C13.6423 100.455 12.661 98.6028 13.1071 96.8393L13.1963 96.3984C13.6423 94.6349 15.5157 93.6649 17.2999 94.1058L31.5735 98.0738C33.3577 98.5146 34.339 100.366 33.8929 102.13L33.8037 102.571C33.2685 104.334 31.4843 105.392 29.7001 104.863Z" fill="#F2B7B6"/>
<path d="M29.6203 117.621L16.8257 110.921C15.1375 110.051 14.5156 108.05 15.4041 106.397L15.7595 105.788C16.648 104.135 18.6916 103.526 20.3797 104.396L33.1743 111.095C34.8625 111.965 35.4844 113.967 34.5959 115.62L34.2405 116.229C33.352 117.795 31.2196 118.491 29.6203 117.621Z" fill="#F2B7B6"/>
<path d="M27.5571 130.349L16.2929 121.566C14.8531 120.491 14.599 118.34 15.6153 116.816L15.9541 116.368C16.9704 114.845 19.0031 114.576 20.4429 115.651L31.7071 124.434C33.1469 125.509 33.401 127.66 32.3847 129.184L32.0459 129.632C30.9449 131.155 28.9122 131.424 27.5571 130.349Z" fill="#F2B7B6"/>
<path d="M59 295.448C53.2114 312.013 26.3419 316.783 21.7629 297.27L12 215.574C29.3658 216.007 42.4982 204.82 52.9522 186L59 295.448Z" fill="white"/>
<path d="M249 298.385L235 244L247.855 347L249 298.385Z" fill="#9AAAC1"/>
<path d="M150.943 87L136.057 85.8462C135.44 85.7692 135 85.3846 135 84.8462C135 84.3846 135.44 84 136.057 84L150.943 85.1538C151.56 85.2308 152 85.6154 152 86.1538C152 86.6923 151.472 87 150.943 87Z" fill="#383530"/>
<path opacity="0.5" d="M132.188 92.983L123.812 92.113C120.65 91.7649 118 88.4586 118 84.8042V84.1951C118 80.4537 120.65 77.7564 123.812 78.0174L132.188 78.8875C135.35 79.2356 138 82.5419 138 86.1963V86.8054C138 90.4598 135.35 93.2441 132.188 92.983Z" fill="white"/>
<path opacity="0.5" d="M169.029 96.9706L158.971 96.1013C155.088 95.7535 152 92.4499 152 88.7985V88.19C152 84.4517 155.176 81.7566 158.971 82.0174L169.029 82.8868C172.912 83.2345 176 86.5382 176 90.1895V90.7981C176 94.5364 172.824 97.3184 169.029 96.9706Z" fill="white"/>
<path d="M133.154 78.0973L122.844 77.0271C119.022 76.6703 116 79.8811 116 84.2514C116 88.6216 119.111 92.4567 122.844 92.9027L133.154 93.9729C136.976 94.3297 139.998 91.1189 139.998 86.7486C140.087 82.2892 136.976 78.4541 133.154 78.0973ZM132.532 92.2784L123.555 91.3865C120.533 91.1189 118.044 87.9973 118.044 84.5189C118.044 81.0406 120.533 78.4541 123.555 78.7217L132.532 79.6135C135.554 79.8811 138.043 83.0027 138.043 86.4811C138.043 89.9594 135.554 92.5459 132.532 92.2784Z" fill="#2E2E35"/>
<path d="M169.987 82.0328L158.013 81.0255C153.61 80.6897 150 83.7116 150 87.8248C150 91.938 153.61 95.5475 158.013 95.9672L169.987 96.9745C174.39 97.3103 178 94.2884 178 90.1752C178 86.062 174.39 82.3685 169.987 82.0328ZM169.195 95.3796L158.805 94.5402C155.283 94.2884 152.377 91.3504 152.377 88.0766C152.377 84.8029 155.283 82.3686 158.805 82.6204L169.195 83.4598C172.717 83.7116 175.623 86.6496 175.623 89.9234C175.535 93.1971 172.717 95.6314 169.195 95.3796Z" fill="#2E2E35"/>
<path d="M176 87.3053L208 74L203.574 78.9684L177.106 90L176 87.3053Z" fill="#2E2E35"/>
<path d="M123.255 41.2557C123.255 41.2557 104.018 19.3221 128.194 7.03935C159.563 -8.92828 191.971 6.33748 196.044 13.0053C199.25 18.1816 227.846 50.8187 123.255 41.2557Z" fill="#7C5345"/>
<path d="M157 454C198.421 454 232 451.985 232 449.5C232 447.015 198.421 445 157 445C115.579 445 82 447.015 82 449.5C82 451.985 115.579 454 157 454Z" fill="#A6CFED"/>
<path d="M135 368H120C118.917 368 118 367.083 118 366V365C118 363.917 118.917 363 120 363H135C136.083 363 137 363.917 137 365V366C137 367.083 136.083 368 135 368Z" fill="#EAECEF"/>
<path d="M127.627 441H127.373C123.889 441 121 438.04 121 434.471V369.529C121 365.96 123.889 363 127.373 363H127.627C131.111 363 134 365.96 134 369.529V434.471C134 438.127 131.111 441 127.627 441Z" fill="#EAECEF"/>
<path d="M128.398 432H127.602C125.124 432 123 429.985 123 427.443V385.557C123 383.103 125.035 381 127.602 381H128.398C130.876 381 133 383.015 133 385.557V427.443C133 429.985 130.876 432 128.398 432Z" fill="#EE3127"/>
<path d="M165.895 368H150.105C148.965 368 148 367.083 148 366V365C148 363.917 148.965 363 150.105 363H165.895C167.035 363 168 363.917 168 365V366C168 367.083 167.123 368 165.895 368Z" fill="#EAECEF"/>
<path d="M158.137 441H157.863C154.111 441 151 438.04 151 434.471V369.529C151 365.96 154.111 363 157.863 363H158.137C161.889 363 165 365.96 165 369.529V434.471C165 438.127 161.889 441 158.137 441Z" fill="#EAECEF"/>
<path d="M159.159 432H156.838C154.696 432 153 430.362 153 428.293V400.707C153 398.638 154.696 397 156.838 397H159.159C161.301 397 162.997 398.638 162.997 400.707V428.293C163.086 430.362 161.301 432 159.159 432Z" fill="#94DEF7"/>
<path d="M198.895 368H183.105C181.965 368 181 367.083 181 366V365C181 363.917 181.965 363 183.105 363H198.895C200.035 363 201 363.917 201 365V366C201 367.083 200.035 368 198.895 368Z" fill="#EAECEF"/>
<path d="M191.627 441H191.373C187.889 441 185 438.04 185 434.471V369.529C185 365.96 187.889 363 191.373 363H191.627C195.111 363 198 365.96 198 369.529V434.471C198 438.127 195.196 441 191.627 441Z" fill="#EAECEF"/>
<path d="M191.714 432H190.286C187.875 432 186 430.091 186 427.834V392.166C186 389.822 187.964 388 190.286 388H191.714C194.125 388 196 389.909 196 392.166V427.834C196 430.091 194.036 432 191.714 432Z" fill="#FFE000"/>
<path d="M105 378H101V449H105V378Z" fill="#0563AA"/>
<path d="M209 378H205V449H209V378Z" fill="#0563AA"/>
<path d="M214 378H96V382H214V378Z" fill="#0563AA"/>
<path d="M214 416H96V420H214V416Z" fill="#0563AA"/>
<path d="M179.441 71.9767L161.947 69.6894C160.722 69.5064 159.847 68.317 160.022 67.0361C160.197 65.7552 161.334 64.8403 162.559 65.0233L180.053 67.3106C181.278 67.4936 182.153 68.683 181.978 69.9639C181.803 71.2448 180.666 72.1597 179.441 71.9767Z" fill="#7C5345"/>
<path d="M140.624 67.9934L126.849 66.5184C125.709 66.4316 124.919 65.3904 125.007 64.2625L125.094 63.8287C125.182 62.7007 126.235 61.9198 127.376 62.0066L141.151 63.4816C142.291 63.5684 143.081 64.6096 142.993 65.7375L142.906 66.1713C142.818 67.2993 141.765 68.0802 140.624 67.9934Z" fill="#7C5345"/>
<path d="M136 113H160C160 113 157.689 124.985 148 123.935C138.311 122.973 136 113 136 113Z" fill="white"/>
<path d="M458.923 426L447 441L553 440.211L541.338 426.614L458.923 426Z" fill="#145896"/>
<path d="M388.379 16C388.379 16 321.998 79.2363 341.631 143.259C361.263 207.281 346.033 200.818 346.033 200.818L400 183.96C400 183.96 379.399 136.359 400 31.1103L388.379 16Z" fill="#72433B"/>
<path d="M402.087 49.8291C411.666 48.5457 418.313 39.161 416.933 28.8679C415.554 18.5747 406.671 11.2709 397.093 12.5543C387.515 13.8378 380.868 23.2224 382.247 33.5156C383.626 43.8087 392.509 51.1125 402.087 49.8291Z" fill="#2E2E35"/>
<path d="M482.479 325.473L504 414L377.052 413.477C377.052 413.477 375.309 349.086 392.038 323.295C403.452 305.694 482.479 325.473 482.479 325.473Z" fill="white"/>
<path d="M532.266 340.918C526.742 339.953 522.599 330.735 523.031 320.288C523.462 309.841 528.21 302.116 533.734 303.082C539.258 304.047 543.401 313.265 542.969 323.712C542.538 334.159 537.704 341.884 532.266 340.918Z" fill="#0371D2"/>
<path d="M552.478 333C550.453 332.743 486 320.255 486 320.255L489.786 291L556 315.978L552.478 333Z" fill="#EF9F95"/>
<path d="M457 418.26C457 422.191 444.681 426.397 429.5 427.677C414.319 428.866 402 426.671 402 422.74C402 418.809 414.319 414.603 429.5 413.323C444.681 412.134 457 414.328 457 418.26Z" fill="#A6CFED"/>
<path d="M467.381 171.025C467.381 171.025 496.278 169.023 496.54 200.971C496.802 244.585 503.698 275.401 503.698 275.401C504.571 284.977 507.714 287.241 514 298.645C514 298.645 513.825 324.935 486.762 320.495C480.651 319.45 463.452 259.471 459 224.737L467.381 171.025Z" fill="white"/>
<path d="M440 170.679L437.647 134.495L404 119L406.005 172L440 170.679Z" fill="#EF9F95"/>
<path d="M477.94 204.537C477.94 204.537 508.421 229.16 490.185 255.35C471.774 281.713 474.379 279.103 474.379 279.103L482.282 326L393.616 321.389L366 225.506L383.629 169.038C402.04 163.905 454.666 169.908 466.998 171.387L477.94 204.537Z" fill="white"/>
<path d="M315 294.649C317.61 317.242 352.845 366.704 389.645 396.887C390.776 397.846 404 392.438 404 390.955C404 389.472 356.586 314.189 338.316 282L315 294.649Z" fill="#ED986D"/>
<path d="M484.953 50.753C480.088 46.1285 454.283 17.2466 433.083 20.2133C411.709 21.4349 393.116 43.598 389.119 49.0952C385.122 54.5923 392.16 87.2262 405.019 126.492C405.019 126.492 431.171 158.515 450.547 156.944C455.065 156.595 478.176 127.277 481.478 112.007L478.698 98.046C478.698 98.046 484.78 83.1252 485.127 80.7692C487.299 62.7072 487.994 53.6325 484.953 50.753Z" fill="#FEC6C3"/>
<path d="M455.076 102L460 116.4L455 120L455.076 102Z" fill="#DD908A"/>
<path d="M346.284 297H314C314 297 336.625 173.141 381.874 169.152C427.123 165.162 414.331 241.229 414.331 241.229L387.878 224.836L346.284 297Z" fill="white"/>
<path d="M439.339 159L439 170.241L446.619 169.979L455 180V164.925L439.339 159Z" fill="#0371D2"/>
<path d="M400.376 149L440 170.429L425.647 171.857L423.534 184C423.534 184 394.652 161.143 393.155 161.143C391.747 161.054 400.376 149 400.376 149Z" fill="#0371D2"/>
<path d="M435 17.237C435 17.237 379.183 2.9166 370.502 71.7244C364.686 118.266 411.302 138 411.302 138C411.302 138 393.506 102.199 403.749 87.8786C432.483 47.5369 435 17.237 435 17.237Z" fill="#7F4C45"/>
<path d="M413 49.9204C413 49.9204 445.855 52.9996 489.516 83C489.516 83 498.929 15.785 434.7 17.0167L413 49.9204Z" fill="#7F4C45"/>
<path d="M408.979 105.282C408.544 110.493 404.025 114.401 398.724 113.967C393.509 113.533 389.598 109.016 390.033 103.718C390.468 98.5071 394.987 94.5987 400.288 95.033C405.415 95.4672 409.326 100.07 408.979 105.282Z" fill="#FEC6C3"/>
<path d="M428 179.13L467 234L451.062 176.522L438.774 170L428 179.13Z" fill="#0563AA"/>
<path d="M424 183L439 170L426.057 171.291L424 183Z" fill="#145896"/>
<path d="M455 180L439 170.261L446.619 170L455 180Z" fill="#145896"/>
<path d="M397.217 409.271L419.156 420C419.156 420 444.852 409.707 443.978 408.486C443.104 407.265 410.415 396.012 410.415 396.012L405.346 392L390.05 398.28C389.526 402.467 393.197 405.956 397.217 409.271Z" fill="#0371D2"/>
<path d="M411 411.696C411 411.696 428.256 430.738 433.272 427.664C438.287 424.59 415.76 407 415.76 407L411 411.696Z" fill="#0371D2"/>
<path d="M413 406.963C413 406.963 439.545 407.812 440.956 401.398C442.279 395.078 413 399.511 413 399.511V406.963Z" fill="#0371D2"/>
<path d="M419 410.696C419 410.696 436.256 429.738 441.272 426.664C446.287 423.59 423.76 406 423.76 406L419 410.696Z" fill="#0371D2"/>
<path d="M427 409.92C427 409.92 445.006 429.869 450.24 426.648C455.473 423.428 431.967 405 431.967 405L427 409.92Z" fill="#0371D2"/>
<path d="M430 407.309C430 407.309 453.858 421.554 457.671 417.158C461.396 412.761 432.217 403 432.217 403L430 407.309Z" fill="#0371D2"/>
<path d="M569.05 352.999L558.471 348.292L552.172 362.45L562.751 367.156L569.05 352.999Z" fill="#EAECEF"/>
<path d="M536.534 412L535 411.3L555.544 360L561 362.451L536.534 412Z" fill="#EAECEF"/>
<path d="M579 296.756L583.48 291L589 295.012L581.48 306L579 296.756Z" fill="#0371D2"/>
<path d="M578.437 296L554.073 314.609L552 334.783L570.143 342C585.349 334.174 594.68 325.391 599 309.739L578.437 296Z" fill="#0371D2"/>
<path d="M565.648 359.638L555.512 355.134C553.606 354.268 552.566 352.449 553.173 351.063L573.704 304.892C575.87 300.041 583.06 298.568 589.818 301.514L596.488 304.459C598.394 305.325 599.434 307.144 598.827 308.53L588.691 319.358L569.979 358.252C569.373 359.725 567.554 360.505 565.648 359.638Z" fill="#145896"/>
<path d="M584 289.507L596.822 289C596.822 289 601.899 295.995 590.97 294.88L584 289.507Z" fill="#0371D2"/>
<path d="M595.513 298.865L583.064 293.333C582.174 292.982 581.73 291.928 582.174 291.05C582.53 290.172 583.597 289.733 584.487 290.172L596.936 295.704C597.826 296.055 598.27 297.109 597.826 297.987C597.47 298.865 596.403 299.217 595.513 298.865Z" fill="#145896"/>
<path d="M591.829 294.312L589.284 293.179L583.797 305.507L586.343 306.64L591.829 294.312Z" fill="#145896"/>
<path d="M578.881 302L599 309.653L594.384 316C594.384 316 567.298 303.213 578.881 302Z" fill="#0371D2"/>
<path d="M574.039 309L596 317.299L591.381 323C591.468 322.916 561.578 309.419 574.039 309Z" fill="#0371D2"/>
<path d="M571.846 314L591 320.129L586.3 326C586.389 326 560.584 315.468 571.846 314Z" fill="#0371D2"/>
<path d="M572.99 320L589 328.027L583.431 333C583.431 333 562.375 320.087 572.99 320Z" fill="#0371D2"/>
<path d="M554 314.704L543.568 310C538.352 316.446 535.788 323.676 537.556 332.3L551.967 335L554 314.704Z" fill="#0371D2"/>
<path d="M390.884 401L374 385.033L393.889 372L406 391.851L390.884 401Z" fill="#0371D2"/>
<path d="M314.028 297.35C314.028 297.35 310.801 318.978 374.191 399C378.812 388.532 385.177 383.515 400 380.919L346.027 281L314.028 297.35Z" fill="white"/>
<path d="M513.272 298.391L533 303.204C522.438 303.116 517.375 332.951 531.516 341L486.036 320.352C486.036 320.352 483.854 294.542 513.272 298.391Z" fill="white"/>
<path d="M463 231.502C463.185 251.27 463.37 271.038 463.556 290.893C463.833 322.504 464.204 354.029 464.482 385.64C464.574 392.955 464.667 400.183 464.667 407.498C464.667 409.501 468 409.501 468 407.498C467.815 387.73 467.63 367.962 467.444 348.107C467.167 316.496 466.796 284.971 466.518 253.36C466.426 246.045 466.333 238.817 466.333 231.502C466.333 229.499 463 229.499 463 231.502Z" fill="#4286D1"/>
<path d="M560.995 453.495C560.908 456.018 533.034 458 498.498 458C463.962 458 436 455.928 436 453.495C436 444.216 461.42 438 495.956 438C530.579 438 561.434 442.955 560.995 453.495Z" fill="#A6CFED"/>
<path d="M441.606 91H423.394C422.61 91 422 90.3438 422 89.5C422 88.6563 422.61 88 423.394 88H441.606C442.39 88 443 88.6563 443 89.5C443 90.25 442.39 91 441.606 91Z" fill="#7F4C45"/>
<path d="M479.679 91H465.321C464.617 91 464 90.3824 464 89.6765V89.3235C464 88.6176 464.617 88 465.321 88H479.679C480.383 88 481 88.6176 481 89.3235V89.6765C481 90.3824 480.383 91 479.679 91Z" fill="#7F4C45"/>
<path d="M537.5 439C533.979 439 531 436.183 531 432.663V416.292C531 412.859 533.708 414.355 537.319 414.355C540.84 414.355 544 412.771 544 416.292V432.663C543.91 436.183 541.021 439 537.5 439Z" fill="#EAECEF"/>
<path d="M543 415C543 415.545 540.5 416 537.5 416C534.417 416 532 415.545 532 415C532 414.455 534.5 414 537.5 414C540.5 414 543 414.455 543 415Z" fill="#0371D2"/>
<path d="M516.5 439C512.979 439 510 436.183 510 432.663V416.292C510 412.859 512.708 414.355 516.319 414.355C519.84 414.355 523 412.771 523 416.292V432.663C522.91 436.183 520.021 439 516.5 439Z" fill="#EAECEF"/>
<path d="M522 415C522 415.545 519.5 416 516.5 416C513.5 416 511 415.545 511 415C511 414.455 513.5 414 516.5 414C519.5 414 522 414.455 522 415Z" fill="#0371D2"/>
<path d="M464 439C467.25 439 470 436.183 470 432.663V416.292C470 412.859 467.5 414.355 464.167 414.355C460.917 414.355 458 412.771 458 416.292V432.663C458.083 436.183 460.75 439 464 439Z" fill="#EAECEF"/>
<path d="M458 415C458 415.545 460.727 416 464 416C467.364 416 470 415.545 470 415C470 414.455 467.273 414 464 414C460.727 414 458 414.455 458 415Z" fill="#0371D2"/>
<path d="M485 439C488.25 439 491 436.183 491 432.663V416.292C491 412.859 488.5 414.355 485.167 414.355C481.917 414.355 479 412.771 479 416.292V432.663C479.083 436.183 481.75 439 485 439Z" fill="#EAECEF"/>
<path d="M479 415C479 415.545 481.727 416 485 416C488.364 416 491 415.545 491 415C491 414.455 488.273 414 485 414C481.727 414 479 414.455 479 415Z" fill="#0371D2"/>
<path d="M501 439C497.75 439 495 436.296 495 432.916V417.2C495 413.905 497.5 415.341 500.833 415.341C504.083 415.341 507 413.82 507 417.2V432.916C507 436.296 504.25 439 501 439Z" fill="#EAECEF"/>
<path d="M501 416C504.314 416 507 415.552 507 415C507 414.448 504.314 414 501 414C497.686 414 495 414.448 495 415C495 415.552 497.686 416 501 416Z" fill="#0371D2"/>
<path d="M541.5 446C537.979 446 535 443.183 535 439.663V423.292C535 419.859 537.708 421.355 541.319 421.355C544.84 421.355 548 419.771 548 423.292V439.663C548 443.095 545.021 446 541.5 446Z" fill="white"/>
<path d="M547 421C547 421.545 544.5 422 541.5 422C538.417 422 536 421.545 536 421C536 420.455 538.5 420 541.5 420C544.583 420 547 420.455 547 421Z" fill="#0371D2"/>
<path d="M521 446C517.75 446 515 443.183 515 439.663V423.292C515 419.859 517.5 421.355 520.833 421.355C524.083 421.355 527 419.771 527 423.292V439.663C526.917 443.095 524.25 446 521 446Z" fill="white"/>
<path d="M527 421C527 421.545 524.273 422 521 422C517.636 422 515 421.545 515 421C515 420.455 517.727 420 521 420C524.273 420 527 420.455 527 421Z" fill="#0371D2"/>
<path d="M501 446C497.75 446 495 443.183 495 439.663V423.292C495 419.859 497.5 421.355 500.833 421.355C504.083 421.355 507 419.771 507 423.292V439.663C507 443.095 504.25 446 501 446Z" fill="white"/>
<path d="M507 421C507 421.545 504.273 422 501 422C497.636 422 495 421.545 495 421C495 420.455 497.727 420 501 420C504.364 420 507 420.455 507 421Z" fill="#0371D2"/>
<path d="M481 446C477.75 446 475 443.183 475 439.663V423.292C475 419.859 477.5 421.355 480.833 421.355C484.083 421.355 487 419.771 487 423.292V439.663C486.917 443.095 484.25 446 481 446Z" fill="white"/>
<path d="M487 421C487 421.545 484.273 422 481 422C477.636 422 475 421.545 475 421C475 420.455 477.727 420 481 420C484.273 420 487 420.455 487 421Z" fill="#0371D2"/>
<path d="M460.5 446C456.979 446 454 443.183 454 439.663V423.292C454 419.859 456.708 421.355 460.319 421.355C463.84 421.355 467 419.771 467 423.292V439.663C467 443.095 464.021 446 460.5 446Z" fill="white"/>
<path d="M466 421C466 421.545 463.5 422 460.5 422C457.417 422 455 421.545 455 421C455 420.455 457.5 420 460.5 420C463.583 420 466 420.455 466 421Z" fill="#0371D2"/>
<path d="M548.742 451H452.258C448.781 451 446 448.25 446 445C446 441.667 448.868 439 452.258 439H548.742C552.218 439 555 441.75 555 445C555 448.333 552.218 451 548.742 451Z" fill="#0563AA"/>
<path d="M440 130H463C463 130 460.785 141.985 451.5 140.935C442.215 139.973 440 130 440 130Z" fill="white"/>
<path d="M425.941 102.752C431.309 103.383 436.417 102.822 441.353 100.929C442.824 100.368 441.526 98.545 440.054 99.1059C435.811 100.719 431.309 101.28 426.633 100.719C424.988 100.578 424.296 102.612 425.941 102.752Z" fill="#2E2E35"/>
<path d="M462.94 101.775C468.078 102.45 472.856 101.606 477.363 99.2444C478.805 98.4853 477.543 96.4608 476.101 97.1356C472.225 99.1601 468.078 100.004 463.661 99.4131C461.949 99.2444 461.318 101.522 462.94 101.775Z" fill="#2E2E35"/>
<path d="M437 102.46C437 104.407 435.425 106 433.5 106C431.575 106 430 104.407 430 102.46C430 100.513 437 100.513 437 102.46Z" fill="#2E2E35"/>
<path d="M474 101.46C474 103.407 472.425 105 470.5 105C468.575 105 467 103.407 467 101.46C467 99.5133 474 99.5133 474 101.46Z" fill="#2E2E35"/>
<path d="M305.857 332.109C309.513 348.807 305.596 358.583 276.35 413H260.596H243.536L229 400.282L290.799 311L305.857 332.109Z" fill="white"/>
</svg>
