<svg width="444" height="47" viewBox="0 0 444 47" fill="none" xmlns="http://www.w3.org/2000/svg">
<circle cx="6" cy="41" r="6" fill="#01559F"/>
<circle cx="42" cy="41" r="6" fill="#01559F"/>
<circle cx="78" cy="41" r="6" fill="#01559F"/>
<circle cx="114" cy="41" r="6" fill="#01559F"/>
<circle cx="150" cy="41" r="6" fill="#01559F"/>
<circle cx="186" cy="41" r="6" fill="#01559F"/>
<circle cx="222" cy="41" r="6" fill="#01559F"/>
<circle cx="258" cy="41" r="6" fill="#01559F"/>
<circle cx="294" cy="41" r="6" fill="#01559F"/>
<circle cx="330" cy="41" r="6" fill="#01559F"/>
<circle cx="366" cy="41" r="6" fill="#01559F"/>
<circle cx="402" cy="41" r="6" fill="#01559F"/>
<circle cx="438" cy="41" r="6" fill="#01559F"/>
<rect x="3" width="6" height="43" rx="3" fill="#E0F2FF"/>
<rect opacity="0.2" x="6" y="1.5636" width="2" height="39.8727" rx="1" fill="#0371D2"/>
<rect x="39" width="6" height="43" rx="3" fill="#E0F2FF"/>
<rect opacity="0.2" x="42" y="1.5636" width="2" height="39.8727" rx="1" fill="#0371D2"/>
<rect x="75" width="6" height="43" rx="3" fill="#E0F2FF"/>
<rect opacity="0.2" x="78" y="1.5636" width="2" height="39.8727" rx="1" fill="#0371D2"/>
<rect x="111" width="6" height="43" rx="3" fill="#E0F2FF"/>
<rect opacity="0.2" x="114" y="1.5636" width="2" height="39.8727" rx="1" fill="#0371D2"/>
<rect x="147" width="6" height="43" rx="3" fill="#E0F2FF"/>
<rect opacity="0.2" x="150" y="1.5636" width="2" height="39.8727" rx="1" fill="#0371D2"/>
<rect x="183" width="6" height="43" rx="3" fill="#E0F2FF"/>
<rect opacity="0.2" x="186" y="1.5636" width="2" height="39.8727" rx="1" fill="#0371D2"/>
<rect x="219" width="6" height="43" rx="3" fill="#E0F2FF"/>
<rect opacity="0.2" x="222" y="1.5636" width="2" height="39.8727" rx="1" fill="#0371D2"/>
<rect x="255" width="6" height="43" rx="3" fill="#E0F2FF"/>
<rect opacity="0.2" x="258" y="1.5636" width="2" height="39.8727" rx="1" fill="#0371D2"/>
<rect x="291" width="6" height="43" rx="3" fill="#E0F2FF"/>
<rect opacity="0.2" x="294" y="1.5636" width="2" height="39.8727" rx="1" fill="#0371D2"/>
<rect x="327" width="6" height="43" rx="3" fill="#E0F2FF"/>
<rect opacity="0.2" x="330" y="1.5636" width="2" height="39.8727" rx="1" fill="#0371D2"/>
<rect x="363" width="6" height="43" rx="3" fill="#E0F2FF"/>
<rect opacity="0.2" x="366" y="1.5636" width="2" height="39.8727" rx="1" fill="#0371D2"/>
<rect x="399" width="6" height="43" rx="3" fill="#E0F2FF"/>
<rect opacity="0.2" x="402" y="1.5636" width="2" height="39.8727" rx="1" fill="#0371D2"/>
<rect x="435" width="6" height="43" rx="3" fill="#E0F2FF"/>
<rect opacity="0.2" x="438" y="1.5636" width="2" height="39.8727" rx="1" fill="#0371D2"/>
</svg>
