<svg width="512" height="453" viewBox="0 0 512 453" fill="none" xmlns="http://www.w3.org/2000/svg">
<path d="M182.655 420.782L105.177 296.063L109.878 293.178L60.9684 214L45.6898 223.469L30.3208 232.848L34.2083 239.07L22.9979 246.014C22.0034 246.645 21.7322 247.908 22.2747 248.899L54.0072 300.031C57.7138 297.777 58.7987 292.907 56.5386 289.3L31.9481 249.711L38.2765 245.743L79.2305 312.025L83.9316 309.139L161.41 433.948L186 450L182.655 420.782Z" fill="#E6E6E6"/>
<path d="M325.668 60.0712L78.2998 73.6067L94.9498 377.894L342.318 364.359L325.668 60.0712Z" fill="#E6E6E6"/>
<path d="M512 163.992L277.736 83.4021L178.603 371.569L412.866 452.159L512 163.992Z" fill="#E6E6E6"/>
<path d="M504.342 147.266L270.079 66.6765L170.946 354.843L405.209 435.433L504.342 147.266Z" fill="#A6CFED"/>
<path d="M285.101 97.4732L201.729 339.826L390.178 404.655L473.551 162.303L285.101 97.4732Z" fill="white"/>
<path d="M304.824 143.786L302.041 151.875L390.603 182.342L393.386 174.252L304.824 143.786Z" fill="#A6CFED"/>
<path d="M299.931 157.95L297.148 166.04L423.689 209.572L426.472 201.483L299.931 157.95Z" fill="#A6CFED"/>
<path d="M295.05 172.224L292.267 180.314L418.808 223.846L421.591 215.756L295.05 172.224Z" fill="#A6CFED"/>
<path d="M280.375 214.753L277.592 222.843L366.154 253.309L368.937 245.219L280.375 214.753Z" fill="#A6CFED"/>
<path d="M275.538 229.032L272.755 237.121L399.296 280.653L402.079 272.564L275.538 229.032Z" fill="#A6CFED"/>
<path d="M270.602 243.191L267.819 251.281L394.36 294.813L397.143 286.723L270.602 243.191Z" fill="#A6CFED"/>
<path d="M256.179 285.055L253.396 293.145L341.958 323.611L344.741 315.522L256.179 285.055Z" fill="#A6CFED"/>
<path d="M251.372 299.249L248.589 307.339L375.13 350.871L377.913 342.781L251.372 299.249Z" fill="#A6CFED"/>
<path d="M246.435 313.408L243.652 321.498L370.194 365.03L372.977 356.94L246.435 313.408Z" fill="#A6CFED"/>
<path d="M171 354.73L218.355 371L342 364.258L326.814 86.5955L269.934 67L171 354.73Z" fill="#0563AA"/>
<path d="M202 340.19L282.538 368L342 364.76L328.278 112.85L285.049 98L202 340.19Z" fill="#E6E6E6"/>
<path d="M302 152.06L331 162L330.552 152.866L304.774 144L302 152.06Z" fill="#0563AA"/>
<path d="M299.796 158L297 165.982L332 178L331.458 168.852L299.796 158Z" fill="#0563AA"/>
<path d="M294.721 172L292 180.049L333 194L332.455 184.878L294.721 172Z" fill="#0563AA"/>
<path d="M278 223.077L336 243L335.549 233.846L280.791 215L278 223.077Z" fill="#0563AA"/>
<path d="M275.802 229L273 237.084L337 259L336.548 249.748L275.802 229Z" fill="#0563AA"/>
<path d="M270.767 243L268 251.113L337 275L336.464 265.806L270.767 243Z" fill="#0563AA"/>
<path d="M253 293.052L340 323L339.456 313.771L255.715 285L253 293.052Z" fill="#0563AA"/>
<path d="M251.779 299L249 307.126L341 339L340.462 329.79L251.779 299Z" fill="#0563AA"/>
<path d="M341.46 345.767L246.787 313L244 321.147L342 355L341.46 345.767Z" fill="#0563AA"/>
<path d="M309.186 44.7615L61.8174 58.2969L78.4673 362.585L325.836 349.049L309.186 44.7615Z" fill="#A6CFED"/>
<path d="M286.326 70.3634L87.334 81.2517L101.337 337.163L300.329 326.274L286.326 70.3634Z" fill="white"/>
<path d="M214.38 26.689C212.394 10.8855 198.496 -0.854282 182.341 0.0487762C166.186 0.951834 153.731 14.1365 153.461 30.0303L117 32.017L120.158 89L254 81.6852L250.841 24.7023L214.38 26.689ZM184.507 39.4221C178.37 39.7833 173.135 35.0874 172.774 28.8563C172.413 22.7155 177.106 17.4778 183.334 17.1166C189.471 16.7554 194.705 21.4513 195.066 27.6824C195.427 33.8232 190.734 39.0609 184.507 39.4221Z" fill="#0371D2"/>
<path d="M195.592 27.5858C195.949 33.7052 191.305 38.9247 185.232 39.2846L187.733 85L254 81.3104L250.874 24.5261L214.704 26.5959C212.739 10.8475 198.986 -0.851303 183 0.0486061L183.893 17.1469C190.055 16.6969 195.235 21.4664 195.592 27.5858Z" fill="#0563AA"/>
<path d="M150.602 142.766C154.72 135.099 151.843 125.544 144.176 121.426C136.509 117.307 126.955 120.184 122.836 127.851C118.718 135.518 121.594 145.072 129.262 149.191C136.929 153.31 146.483 150.433 150.602 142.766Z" fill="#A6CFED"/>
<path d="M141.07 226.008C149.772 225.879 156.723 218.719 156.593 210.016C156.464 201.313 149.304 194.363 140.601 194.492C131.898 194.622 124.948 201.782 125.077 210.485C125.207 219.187 132.367 226.138 141.07 226.008Z" fill="#A6CFED"/>
<path d="M160.58 285.619C161.25 276.941 154.758 269.364 146.08 268.694C137.403 268.024 129.825 274.516 129.155 283.194C128.486 291.871 134.977 299.449 143.655 300.119C152.333 300.788 159.91 294.297 160.58 285.619Z" fill="#A6CFED"/>
<path d="M137.538 147L125 135.598L131.314 128.333L136.817 133.299L152.873 115L160 121.529L137.538 147Z" fill="#0563AA"/>
<path d="M141.538 221L129 209.506L135.314 202.241L140.817 207.299L156.873 189L164 195.437L141.538 221Z" fill="#0563AA"/>
<path d="M145.538 295L133 283.506L139.314 276.333L144.817 281.299L160.873 263L168 269.437L145.538 295Z" fill="#0563AA"/>
<path d="M216.574 111.621L172.873 114.012L173.34 122.555L217.041 120.164L216.574 111.621Z" fill="#A6CFED"/>
<path d="M257.517 124.391L173.712 128.977L174.179 137.519L257.984 132.934L257.517 124.391Z" fill="#A6CFED"/>
<path d="M258.33 139.431L174.525 144.016L174.992 152.559L258.797 147.973L258.33 139.431Z" fill="#A6CFED"/>
<path d="M220.714 186.544L177.013 188.935L177.481 197.478L221.182 195.086L220.714 186.544Z" fill="#A6CFED"/>
<path d="M261.567 199.319L177.762 203.905L178.23 212.447L262.035 207.862L261.567 199.319Z" fill="#A6CFED"/>
<path d="M262.47 214.354L178.665 218.939L179.132 227.482L262.937 222.896L262.47 214.354Z" fill="#A6CFED"/>
<path d="M224.768 260.749L181.067 263.14L181.534 271.682L225.235 269.291L224.768 260.749Z" fill="#A6CFED"/>
<path d="M265.711 273.519L181.906 278.105L182.373 286.647L266.178 282.062L265.711 273.519Z" fill="#A6CFED"/>
<path d="M266.524 288.559L182.719 293.145L183.186 301.687L266.991 297.101L266.524 288.559Z" fill="#A6CFED"/>
<path d="M9 218.915L39.3777 200L88 279.175L57.6223 298L9 218.915Z" fill="#0371D2"/>
<path d="M83.1435 281.684L62.0142 294.772L139.171 419.328L160.3 406.239L83.1435 281.684Z" fill="#0563AA"/>
<path d="M164 435L160.507 406L139 419.068L164 435Z" fill="#0371D2"/>
<path d="M0.981762 231.948L12.2899 225L16.4848 231.678L10.01 235.648L34.8149 275.262C37.0947 278.962 36.0004 283.744 32.2614 286L0.343401 234.836C-0.294959 233.843 -0.0213764 232.58 0.981762 231.948Z" fill="#0563AA"/>
<path d="M72.5817 288.295L62.0171 294.839L139.174 419.395L149.739 412.85L72.5817 288.295Z" fill="#0371D2"/>
<path d="M73 288.493L24.2338 209L9 218.507L57.7662 298L73 288.493Z" fill="#0563AA"/>
<path d="M139 419.398L164 435L149.754 413L139 419.398Z" fill="#0563AA"/>
</svg>
